<?xml version="1.0" encoding="utf-8"?>
<!-- Generator: Adobe Illustrator 25.3.1, SVG Export Plug-In . SVG Version: 6.00 Build 0)  -->
<svg version="1.1" id="图层_1" xmlns="http://www.w3.org/2000/svg" xmlns:xlink="http://www.w3.org/1999/xlink" x="0px" y="0px"
	 viewBox="0 0 150 58" style="enable-background:new 0 0 150 58;" xml:space="preserve" width="150" height="58">
<style type="text/css">
	.st0{fill:#18A829;}
</style>
<g>
	<g>
		<path class="st0" d="M0.6,2.8h9v33.6h15.8v7.9H0.6V2.8z"/>
		<path class="st0" d="M57.5,34.6c0,3.9,0.1,7.2,0.2,9.7H50L49.6,40h-0.2c-1.1,1.9-3.8,4.9-9,4.9c-5.9,0-10.1-3.8-10.1-13.1V14.2h9
			v16.2c0,4.4,1.4,7,4.5,7c2.4,0,3.9-1.8,4.5-3.3c0.2-0.5,0.3-1.2,0.3-2v-18h9V34.6z"/>
		<path class="st0" d="M86.4,43.5c-1.6,0.8-4.6,1.4-8,1.4c-9.3,0-15.3-6-15.3-15.4c0-8.8,5.8-16,16.5-16c2.4,0,5,0.4,6.8,1.2l-1.4,7
			c-1.1-0.5-2.7-1-5-1c-4.7,0-7.8,3.5-7.7,8.4c0,5.5,3.6,8.5,7.9,8.5c2.1,0,3.8-0.4,5.2-1L86.4,43.5z"/>
		<path class="st0" d="M100.3,26.9h0.1c0.7-1.3,1.4-2.5,2.1-3.6l5.8-9.1h10.8l-10.3,12.2l11.8,17.9h-11l-7-12.4l-2.3,3v9.4h-9V0.6h9
			V26.9z"/>
		<path class="st0" d="M129.9,14.2l4.3,14.8c0.5,1.8,1.1,4,1.4,5.6h0.2c0.4-1.6,0.9-3.9,1.3-5.6l3.6-14.8h9.6L143.6,34
			c-4.1,12-6.9,16.7-10.2,19.8c-3.1,2.8-6.4,3.9-8.6,4.1l-1.9-7.9c1.1-0.2,2.5-0.8,3.9-1.6c1.4-0.8,2.9-2.3,3.7-3.8
			c0.3-0.5,0.5-0.9,0.5-1.4c0-0.4-0.1-0.8-0.4-1.5L120,14.2H129.9z"/>
	</g>
</g>
</svg>
