<?xml version="1.0" standalone="no"?><!DOCTYPE svg PUBLIC "-//W3C//DTD SVG 1.1//EN" "http://www.w3.org/Graphics/SVG/1.1/DTD/svg11.dtd"><svg t="1627967292911" class="icon" viewBox="0 0 1024 1024" version="1.1" xmlns="http://www.w3.org/2000/svg" p-id="556" xmlns:xlink="http://www.w3.org/1999/xlink" width="200" height="200"><defs><style type="text/css"></style></defs><path d="M907.79534222 503.64074666c155.76177778-71.87911111 61.94062222-220.48312889-111.57731555-173.76824889-95.65525333 25.71719111-180.60856889 127.10684445-248.39168 165.09496889 37.98812445-67.78311111 139.34250667-152.75235555 165.09610666-248.35527112C759.63733333 73.0567111 611.03331555-20.72803556 539.17127111 134.99960888c-71.87911111-155.72764445-220.48312889-61.94176-173.78645333 111.61258666 25.77066667 95.60177778 127.12504889 180.57216 165.09496889 248.35527112-67.76604445-37.98812445-152.69888-139.37777778-248.37233778-165.09496889-173.51907555-46.71488-267.32202667 101.88913778-111.55911111 173.76824889-155.76291555 71.86204445-61.95996445 220.46492445 111.55911111 173.76824888 95.67345778-25.73425778 180.60743111-127.12504889 248.37233778-165.09496888-37.96992 67.78424889-139.32430222 152.73528889-165.09496889 248.40874666-46.69667555 173.52021333 101.90620445 267.30609778 173.78645333 111.56024889 71.86204445 155.74584889 220.46606222 61.95996445 173.75118222-111.56024889-25.7536-95.67345778-127.10798222-180.62449778-165.09610666-248.40874666 67.78311111 37.96992 152.73528889 139.36071111 248.39168 165.09496888 173.51907555 46.69667555 267.34023111-101.90620445 111.57731555-173.76824888z" fill="#33ae21" p-id="557"></path></svg>